<svg id="Capa_1" data-name="Capa 1" xmlns="http://www.w3.org/2000/svg" viewBox="0 0 14.17 13.15"><defs><style>.cls-1{fill:#fff;}</style></defs><path class="cls-1" d="M18,18.94a1.24,1.24,0,1,1-1.24,1.24A1.24,1.24,0,0,1,18,18.94m0-.77a2,2,0,1,0,2,2,2,2,0,0,0-2-2Z" transform="translate(-15.59 -16.1)"/><path class="cls-1" d="M16,29.25a.34.34,0,0,1-.34-.34v-4.2a2.35,2.35,0,0,1,4.62-.63.34.34,0,0,1-.23.41.34.34,0,0,1-.42-.24,1.67,1.67,0,0,0-3.29.44v4.22A.34.34,0,0,1,16,29.25Z" transform="translate(-15.59 -16.1)"/><path class="cls-1" d="M19.24,26.49a.9.9,0,0,1-.73-.32c-.17-.17-1.08-1-1.08-1l.53-.57,1.07,1c.11.11.16.17.54.06l2.55-.88a.39.39,0,0,0-.23-.74h0L19.32,25a.39.39,0,0,1-.26-.73l2.57-.91a1.17,1.17,0,0,1,.74,2.21l-2.57.88A2.21,2.21,0,0,1,19.24,26.49Z" transform="translate(-15.59 -16.1)"/><path class="cls-1" d="M22.64,24.37a.39.39,0,0,1-.27-.1.4.4,0,0,1,0-.55l2.94-3.15a.37.37,0,0,1,.54,0,.38.38,0,0,1,0,.55l-2.93,3.15A.38.38,0,0,1,22.64,24.37Z" transform="translate(-15.59 -16.1)"/><path class="cls-1" d="M20,28.27a.38.38,0,0,1-.38-.39V27a.39.39,0,0,1,.77,0v.86A.38.38,0,0,1,20,28.27Z" transform="translate(-15.59 -16.1)"/><path class="cls-1" d="M29.76,26.18h-5.2a.39.39,0,0,1,0-.77H29V16.88H16a.39.39,0,0,1,0-.78H29.76Z" transform="translate(-15.59 -16.1)"/><path class="cls-1" d="M27.41,19.79H21.79a.39.39,0,1,1,0-.77h5.62a.39.39,0,0,1,0,.77Z" transform="translate(-15.59 -16.1)"/><path class="cls-1" d="M27.41,20.92h-.62a.39.39,0,1,1,0-.77h.62a.39.39,0,0,1,0,.77Z" transform="translate(-15.59 -16.1)"/><path class="cls-1" d="M24.45,20.92H21.79a.39.39,0,1,1,0-.77h2.66a.39.39,0,1,1,0,.77Z" transform="translate(-15.59 -16.1)"/><path class="cls-1" d="M27.41,22.05h-.75a.39.39,0,0,1,0-.77h.75a.39.39,0,0,1,0,.77Z" transform="translate(-15.59 -16.1)"/><path class="cls-1" d="M23.28,22.05H21.79a.39.39,0,1,1,0-.77h1.49a.39.39,0,0,1,0,.77Z" transform="translate(-15.59 -16.1)"/></svg>