<?xml version="1.0" encoding="utf-8"?>
<!-- Generator: Adobe Illustrator 16.0.3, SVG Export Plug-In . SVG Version: 6.00 Build 0)  -->
<!DOCTYPE svg PUBLIC "-//W3C//DTD SVG 1.1//EN" "http://www.w3.org/Graphics/SVG/1.1/DTD/svg11.dtd">
<svg version="1.1" id="Capa_1" xmlns="http://www.w3.org/2000/svg" xmlns:xlink="http://www.w3.org/1999/xlink" x="0px" y="0px"
	 width="300px" height="100px" viewBox="0 0 300 100" enable-background="new 0 0 300 100" xml:space="preserve">
<g transform="translate(300,300)">
	
		<linearGradient id="SVGID_1_" gradientUnits="userSpaceOnUse" x1="987.3154" y1="-1687.5122" x2="1437.3169" y2="-1807.5126" gradientTransform="matrix(0.1667 0 0 -0.1667 -345.5835 -538.7498)">
		<stop  offset="0" style="stop-color:#6341FF"/>
		<stop  offset="0.4235" style="stop-color:#3C91DE"/>
		<stop  offset="0.6744" style="stop-color:#34A3D7"/>
		<stop  offset="0.9337" style="stop-color:#00CCCD"/>
	</linearGradient>
	<path fill="url(#SVGID_1_)" d="M-128.166-284.6c4.816,3.733,5.966,12.55,9.716,20.317s10.101,14.483,10.2,20.934
		c0.084,6.467-6.1,12.684-12.4,17.333c-6.283,4.667-12.699,7.767-19.684,10.55c-6.966,2.783-14.516,5.233-22.099,4.517
		c-7.583-0.716-15.217-4.6-19.967-10.667c-4.75-6.049-6.633-14.283-6.017-21.766c0.633-7.5,3.75-14.25,7.667-19.767
		c3.9-5.517,8.583-9.784,13.833-13.333c5.267-3.533,11.083-6.367,18.25-8.433C-141.5-287-133-288.333-128.166-284.6z"/>
</g>
</svg>
