<svg id="Capa_1" data-name="Capa 1" xmlns="http://www.w3.org/2000/svg" viewBox="0 0 50.87 7.95"><defs><style>.cls-1{fill:#fff;}.cls-2{fill:#e20613;}</style></defs><polygon class="cls-1" points="2.79 2.15 2.79 2.71 0.65 2.71 0.65 4.44 2.79 4.44 2.79 5 0.65 5 0.65 6.73 2.79 6.73 2.79 7.29 0 7.29 0 2.15 2.79 2.15"/><polygon class="cls-1" points="8.2 2.15 8.2 7.29 7.55 7.29 7.55 3.11 5.87 5.33 4.17 3.11 4.17 7.29 3.53 7.29 3.53 2.15 4.22 2.15 5.87 4.31 7.51 2.15 8.2 2.15"/><path class="cls-1" d="M14.32,3.86a2.62,2.62,0,0,1,0,3.71,2.57,2.57,0,0,1-1.9.77A2.65,2.65,0,0,1,9.75,5.71a2.52,2.52,0,0,1,.78-1.85,2.69,2.69,0,0,1,3.79,0m-1.9-.21a1.94,1.94,0,0,0-1.42.6,2,2,0,0,0-.6,1.46A2,2,0,0,0,11,7.18a2,2,0,0,0,2.84,0,2,2,0,0,0,.6-1.47,2,2,0,0,0-.6-1.46,1.94,1.94,0,0,0-1.42-.6" transform="translate(-1 -1)"/><path class="cls-1" d="M19.7,7.16l.45.4a2.79,2.79,0,0,1-1.91.78,2.55,2.55,0,0,1-1.89-.77,2.49,2.49,0,0,1-.77-1.85,2.51,2.51,0,0,1,.77-1.85,2.56,2.56,0,0,1,1.89-.78,2.8,2.8,0,0,1,1.91.79l-.45.4a2.22,2.22,0,0,0-1.46-.62,2,2,0,0,0-1.42.6,2,2,0,0,0-.59,1.46,2,2,0,0,0,.59,1.46,2,2,0,0,0,1.42.6,2.22,2.22,0,0,0,1.46-.62" transform="translate(-1 -1)"/><rect class="cls-1" x="19.81" y="2.15" width="0.65" height="5.13"/><path class="cls-1" d="M26.68,3.86a2.51,2.51,0,0,1,.77,1.85,2.53,2.53,0,0,1-.77,1.86,2.72,2.72,0,0,1-3.79,0,2.6,2.6,0,0,1,0-3.71,2.69,2.69,0,0,1,3.79,0m-1.9-.21a1.94,1.94,0,0,0-1.42.6,2,2,0,0,0-.6,1.46,2,2,0,0,0,.6,1.47,1.94,1.94,0,0,0,1.42.6,2,2,0,0,0,1.43-.6,2,2,0,0,0,.59-1.47,2,2,0,0,0-.59-1.46,2,2,0,0,0-1.43-.6" transform="translate(-1 -1)"/><path class="cls-1" d="M32.06,7.16l.45.4a2.79,2.79,0,0,1-1.91.78,2.56,2.56,0,0,1-1.89-.77,2.53,2.53,0,0,1-.77-1.85,2.55,2.55,0,0,1,.77-1.85,2.57,2.57,0,0,1,1.89-.78,2.8,2.8,0,0,1,1.91.79l-.45.4a2.2,2.2,0,0,0-1.46-.62,1.91,1.91,0,0,0-1.41.6,2,2,0,0,0-.6,1.46,2,2,0,0,0,.6,1.46,1.91,1.91,0,0,0,1.41.6,2.2,2.2,0,0,0,1.46-.62" transform="translate(-1 -1)"/><polygon class="cls-1" points="32.14 7.29 32.14 2.15 32.78 2.15 32.78 6.73 34.63 6.73 34.63 7.29 32.14 7.29"/><polygon class="cls-1" points="43.52 3.44 44.56 6.12 45.62 2.15 46.28 2.15 44.9 7.29 44.34 7.29 43.31 4.58 42.28 7.29 41.71 7.29 40.34 2.15 40.99 2.15 42.06 6.12 43.09 3.44 43.52 3.44"/><polygon class="cls-1" points="47.3 2.15 50.23 6.26 50.23 2.15 50.87 2.15 50.87 7.29 50.16 7.29 47.31 3.29 47.31 7.29 46.66 7.29 46.66 2.15 47.3 2.15"/><path class="cls-2" d="M38.51,2.52a3.22,3.22,0,1,0,3.22,3.21,3.22,3.22,0,0,0-3.22-3.21" transform="translate(-1 -1)"/><path class="cls-1" d="M40.49,4.2c-.07.24-.4.34-.75.23s-.57-.37-.5-.6.4-.34.75-.23.57.37.5.6" transform="translate(-1 -1)"/><path class="cls-1" d="M42.61,1.51l-.53-.06a5.07,5.07,0,0,0-1.29,0,3.57,3.57,0,0,0-1.14.38.66.66,0,0,1-.19.09.13.13,0,0,1-.09,0,.07.07,0,0,1,0-.11.91.91,0,0,1,.11-.16A1.88,1.88,0,0,1,40,1.27a3.34,3.34,0,0,1,2.14-.16,3.12,3.12,0,0,1,.39.15.39.39,0,0,1,.1.08s.06.07,0,.11-.06,0-.1.06" transform="translate(-1 -1)"/><path class="cls-1" d="M34.79,1.51l.53-.06a5.07,5.07,0,0,1,1.29,0,3.57,3.57,0,0,1,1.14.38.82.82,0,0,0,.19.09.17.17,0,0,0,.1,0,.09.09,0,0,0,0-.11,1,1,0,0,0-.12-.16,1.84,1.84,0,0,0-.57-.34,3.35,3.35,0,0,0-2.14-.16,2.74,2.74,0,0,0-.4.15.39.39,0,0,0-.1.08s-.06.07,0,.11.07,0,.1.06" transform="translate(-1 -1)"/></svg>